# xmcd CD database file
# Copyright (C) 1993-1998 Ti Kan
#
# Track frame offsets:
#     183
#     49938
#     79698
#     120555
#     137040
#     163810
#     185433
#     218070
#     236570
#     289195
#
# Disc length: 4076 seconds
#
# Revision: 2
# Processed by: cddbd v1.5.1PL2 Copyright (c) Steve Scherf et al.
# Submitted via: DiscPlay 4.0.4
#
DISCID=8e0fea0a
DTITLE=Stevie Ray Vaughan - Cold Shot [CD2]
DYEAR=1900
DGENRE=
TTITLE0=Voodoo Chile
TTITLE1=Texas Flood
TTITLE2=Life Without You
TTITLE3=Lenny
TTITLE4=Wall of Denial
TTITLE5=Superstition
TTITLE6=Cold Shot
TTITLE7=Crossfire
TTITLE8=Voodoo Chile
TTITLE9=Couldn't Stand the Weather
EXTD=
EXTT0=
EXTT1=
EXTT2=
EXTT3=
EXTT4=
EXTT5=
EXTT6=
EXTT7=
EXTT8=
EXTT9=
PLAYORDER=
